<?xml version="1.0" standalone="no"?>
<!DOCTYPE svg PUBLIC "-//W3C//DTD SVG 20010904//EN"
 "http://www.w3.org/TR/2001/REC-SVG-20010904/DTD/svg10.dtd">
<svg version="1.0" xmlns="http://www.w3.org/2000/svg"
 width="735.000000pt" height="735.000000pt" viewBox="0 0 735.000000 735.000000"
 preserveAspectRatio="xMidYMid meet">
<metadata>
Created by potrace 1.11, written by Peter Selinger 2001-2013
</metadata>
<g transform="translate(0.000000,735.000000) scale(0.100000,-0.100000)"
fill="#000000" stroke="none">
<path d="M3569 5658 c-15 -59 -47 -214 -63 -308 -3 -19 -8 -46 -11 -60 -17
-81 -65 -424 -69 -497 -2 -22 -16 -46 -16 -25 0 6 -6 17 -12 24 -7 7 -26 31
-43 53 -37 50 -146 159 -210 211 -66 54 -153 114 -164 114 -5 0 2 -37 15 -82
37 -131 153 -507 160 -521 4 -7 -7 1 -24 17 l-32 30 0 -32 c0 -38 40 -141 92
-235 21 -39 38 -72 38 -74 0 -3 9 -18 21 -34 11 -16 17 -29 13 -29 -3 0 -2 -6
4 -13 19 -23 142 -250 142 -262 0 -20 59 -188 85 -240 64 -132 70 -169 44
-237 -16 -39 -30 -40 -87 -2 -47 32 -122 111 -122 128 0 4 -7 14 -15 22 -13
14 -15 13 -15 -7 0 -30 -9 -19 -12 14 -1 14 -5 24 -9 21 -4 -2 -5 -14 -3 -27
2 -12 2 -17 -2 -10 -3 7 -12 9 -20 6 -13 -5 -12 -8 2 -24 12 -14 18 -40 20
-92 2 -72 12 -156 20 -168 2 -4 6 -22 9 -40 8 -61 16 -93 25 -104 4 -5 9 -13
9 -17 1 -5 2 -10 2 -13 1 -3 2 -13 3 -22 1 -10 12 -34 24 -53 12 -19 23 -41
23 -47 1 -7 2 -19 3 -25 1 -7 -2 -19 -7 -25 -7 -9 -5 -13 7 -13 9 0 16 -4 16
-10 0 -5 -4 -10 -8 -10 -5 0 -9 -6 -9 -14 0 -8 6 -12 13 -9 9 3 11 -2 7 -16
-3 -12 -1 -21 5 -21 6 0 9 -9 7 -20 -2 -11 1 -19 8 -17 7 1 12 -9 12 -25 -1
-22 2 -25 14 -15 12 10 14 9 8 -5 -4 -13 -1 -18 10 -18 9 0 14 -3 10 -6 -3 -4
1 -13 9 -21 8 -8 12 -18 9 -23 -3 -4 3 -7 13 -6 10 0 16 -5 14 -13 -3 -12 0
-12 12 -2 12 10 14 9 9 -8 -4 -15 -1 -21 11 -21 9 0 16 -5 16 -11 0 -5 5 -7
12 -3 6 4 8 3 4 -4 -3 -6 7 -18 23 -28 17 -10 28 -21 25 -25 -2 -4 7 -20 21
-35 14 -15 25 -30 25 -34 0 -13 -39 -42 -49 -36 -5 4 -12 2 -16 -4 -4 -6 -12
-7 -18 -4 -7 4 -9 4 -5 -1 12 -13 -12 -35 -29 -28 -11 4 -14 3 -9 -6 6 -9 1
-10 -18 -5 -18 4 -26 2 -26 -7 0 -11 -3 -11 -10 1 -6 10 -10 11 -10 3 0 -22
-18 -14 -22 9 -3 24 -41 39 -81 31 -14 -3 -43 -20 -65 -38 -35 -31 -40 -32
-55 -18 -25 25 -64 9 -87 -37 -11 -22 -22 -40 -23 -40 -2 0 -3 10 -4 21 -1 13
11 34 28 50 18 17 27 33 23 43 -8 20 -63 36 -86 24 -19 -9 -33 -67 -31 -130 0
-21 -3 -36 -6 -33 -11 6 -62 -31 -54 -40 5 -4 -2 -2 -14 4 -19 10 -23 9 -23
-4 0 -14 -18 -20 -49 -15 -8 1 -12 -4 -8 -13 3 -8 -1 -23 -9 -34 -14 -17 -14
-16 -4 7 11 24 10 24 -4 5 -8 -11 -20 -26 -26 -32 -6 -7 -7 -13 -2 -13 5 0 9
-7 9 -15 0 -8 -4 -12 -9 -9 -4 3 -7 -3 -6 -13 3 -42 -2 -64 -14 -57 -7 4 -5
-2 5 -13 9 -11 14 -23 10 -26 -3 -4 0 -7 8 -7 12 0 11 -2 -1 -10 -13 -9 -13
-12 2 -24 10 -7 15 -16 11 -19 -3 -4 3 -7 14 -7 27 0 35 -10 21 -27 -8 -11 -7
-12 5 -8 10 4 18 -1 22 -16 5 -15 10 -18 15 -9 6 9 13 9 28 1 11 -6 28 -8 38
-4 11 4 15 3 11 -4 -4 -6 1 -17 10 -24 13 -11 15 -11 9 -1 -6 9 -1 12 18 10
14 -2 28 -7 32 -11 4 -4 13 -2 21 4 8 7 13 8 13 1 0 -15 28 -23 36 -10 4 6 3
8 -4 4 -6 -3 -13 -2 -16 3 -7 10 13 9 30 -2 6 -3 14 -3 18 0 14 15 38 11 32
-4 -6 -14 -3 -13 19 1 14 9 25 12 25 6 0 -5 5 -10 11 -10 5 0 8 4 4 9 -6 10
33 6 43 -4 3 -2 12 1 20 8 12 9 16 9 19 0 4 -10 8 -9 19 2 15 15 44 10 44 -7
0 -5 5 -6 12 -2 17 11 67 11 60 0 -3 -5 9 -6 29 -3 24 5 30 4 19 -3 -13 -9
-13 -10 0 -10 12 -1 11 -3 -3 -11 -9 -5 -26 -28 -37 -49 -11 -21 -30 -46 -42
-54 -12 -9 -19 -16 -16 -16 4 0 -8 -16 -26 -36 -23 -25 -38 -34 -47 -28 -11 6
-11 4 0 -10 8 -9 10 -16 5 -15 -17 3 -54 -13 -49 -22 8 -12 -33 -31 -48 -23
-7 5 -6 1 2 -10 8 -9 10 -16 5 -15 -21 4 -44 -2 -44 -11 0 -7 194 -9 578 -8
542 3 577 4 576 21 -1 9 3 17 8 17 7 0 6 5 -1 13 -8 10 -7 17 1 25 8 8 8 15
-2 27 -11 13 -10 14 5 9 12 -5 16 -4 11 4 -3 6 -2 13 3 17 6 3 8 19 6 36 -3
23 0 29 10 25 9 -3 12 0 8 10 -3 7 -1 14 5 14 6 0 8 10 4 22 -3 14 -1 19 6 14
8 -5 9 0 3 16 -6 17 -4 26 8 36 9 7 10 11 3 7 -7 -4 -12 0 -12 10 0 10 5 14
13 9 9 -5 9 -4 0 6 -16 17 -5 40 19 40 10 0 17 3 15 8 -3 4 2 14 11 22 14 13
15 12 10 -2 -5 -12 -2 -15 13 -11 10 3 17 9 14 12 -2 4 2 8 10 8 8 0 11 -5 8
-10 -4 -6 1 -8 12 -4 9 4 23 3 30 -3 8 -7 12 -5 12 5 0 8 -5 11 -10 8 -6 -3
-7 -1 -3 6 6 9 11 9 22 0 8 -6 14 -8 14 -3 1 5 7 -2 16 -16 l15 -25 -7 25 c-5
20 -4 23 7 12 16 -14 33 -16 24 -2 -10 16 4 12 25 -8 13 -12 34 -18 65 -17 25
0 45 -3 45 -7 0 -4 7 -5 15 -2 9 4 15 0 15 -7 0 -11 3 -11 10 1 9 13 10 13 11
0 1 -8 1 -19 0 -23 -1 -4 7 -3 18 3 25 13 34 13 26 0 -4 -6 6 -8 25 -6 19 2
33 -1 36 -9 3 -6 11 -12 19 -12 12 0 12 3 2 16 -9 12 -5 11 17 -3 18 -12 41
-17 66 -14 30 3 37 0 32 -12 -4 -12 -2 -13 9 -2 16 15 33 16 23 1 -4 -7 1 -7
16 1 25 13 55 6 44 -11 -4 -8 -3 -9 5 -5 6 4 9 12 6 17 -4 5 1 9 10 9 15 0 15
1 1 16 -20 19 -20 21 -1 21 8 0 12 -4 9 -9 -3 -4 4 -8 15 -8 12 0 21 5 21 11
0 5 -4 7 -10 4 -6 -4 -7 1 -3 11 5 15 7 15 15 0 5 -9 13 -14 19 -11 5 4 9 1 9
-6 0 -7 3 -9 6 -6 4 4 1 13 -6 22 -11 13 -10 14 5 9 14 -6 16 -4 11 7 -4 8 -1
6 8 -5 14 -18 15 -18 13 3 -1 11 -7 21 -14 21 -7 0 -13 4 -13 10 0 5 7 6 17 3
11 -5 14 -3 8 6 -6 10 -3 11 13 2 17 -9 20 -8 17 7 -1 9 -8 16 -15 14 -6 -1
-9 2 -6 7 3 5 16 7 29 5 12 -2 17 -2 10 2 -7 3 -9 12 -6 21 5 12 3 14 -8 8 -8
-4 -4 2 9 14 23 22 30 37 12 26 -5 -3 -10 -1 -10 5 0 6 8 14 18 18 9 4 18 14
20 22 3 12 1 13 -9 3 -7 -7 -20 -13 -28 -13 -11 0 -10 3 4 14 18 13 18 14 -3
27 -12 8 -22 18 -22 24 0 6 -9 17 -20 25 -21 15 -28 36 -8 24 7 -5 8 -3 4 5
-5 7 -11 10 -14 7 -3 -3 -11 3 -19 14 -7 11 -20 17 -28 14 -8 -4 -18 1 -21 10
-3 9 -14 16 -25 16 -18 0 -43 32 -33 43 3 3 -3 3 -15 0 -12 -3 -21 -1 -21 6 0
6 -6 11 -14 11 -8 0 -18 9 -21 20 -5 15 -13 19 -31 16 -13 -3 -27 0 -30 6 -5
7 -2 8 7 4 8 -4 5 0 -6 8 -11 9 -25 14 -32 12 -6 -3 -59 43 -117 101 -79 80
-105 112 -102 127 2 12 20 74 40 139 20 67 34 128 30 141 -3 14 -26 34 -57 52
l-52 30 -1 60 c-2 107 -74 203 -119 158 -16 -17 -13 -43 15 -101 12 -25 21
-66 21 -99 1 -47 -2 -60 -19 -73 -26 -20 -34 -81 -16 -117 17 -33 18 -30 -8
-39 -32 -10 -58 -7 -95 13 -39 20 -39 21 -13 72 28 55 26 97 -4 112 -41 18
-52 5 -65 -74 -19 -108 -16 -115 58 -155 36 -19 70 -42 78 -51 64 -85 84 -138
51 -136 -33 2 -38 4 -37 12 3 20 -3 23 -18 11 -15 -12 -16 -12 -11 3 8 19 -1
30 -16 20 -13 -8 -95 -10 -93 -2 1 3 -6 16 -16 30 -9 13 -17 19 -17 13 0 -6
-7 -13 -14 -16 -11 -4 -13 -1 -9 11 6 15 5 16 -12 2 -17 -14 -18 -13 -12 2 4
12 2 15 -8 11 -8 -3 -13 -8 -10 -12 2 -4 -2 -8 -10 -8 -8 0 -11 5 -7 11 3 6 7
24 8 40 2 16 8 32 14 36 7 5 10 22 7 44 -4 27 -2 36 7 33 7 -3 13 1 13 9 0 7
-5 10 -10 7 -5 -3 -7 0 -5 8 3 8 1 22 -4 32 -5 9 -5 17 -1 17 5 0 8 18 6 40
-1 22 2 40 6 40 5 0 7 11 6 25 -2 14 0 25 3 25 8 0 7 71 -2 137 -3 23 -1 45 5
48 5 4 7 10 4 15 -3 5 0 12 5 15 20 12 38 65 42 122 2 18 6 33 9 33 14 0 -17
184 -31 188 -6 2 -10 16 -10 30 -1 15 -10 43 -20 62 -10 19 -25 46 -32 60 -7
14 -15 27 -19 30 -3 3 -8 13 -12 23 -4 11 -12 15 -18 11 -7 -4 -9 -3 -5 4 3 6
2 13 -4 17 -6 4 -8 11 -4 16 3 5 0 8 -7 7 -13 -3 -20 40 -8 47 4 3 5 13 2 24
-2 10 11 49 30 87 58 117 132 310 201 524 127 399 168 532 164 535 -8 8 -206
-165 -270 -235 -59 -65 -68 -71 -69 -49 0 13 -2 42 -4 64 -2 22 -6 76 -9 120
-4 44 -9 94 -11 110 -2 17 -7 62 -10 100 -14 173 -17 199 -51 433 -4 23 -10
45 -14 47 -11 7 -77 -74 -135 -163 -60 -93 -172 -318 -221 -443 l-37 -97 -29
85 c-43 129 -93 246 -159 371 -58 111 -149 255 -168 267 -6 3 -15 -14 -22 -37z"/>
<path d="M2553 3747 c-3 -6 -1 -7 4 -4 6 4 16 0 23 -8 10 -12 7 -14 -17 -12
-19 1 -27 -2 -25 -12 2 -8 -3 -11 -11 -8 -9 3 -14 -1 -13 -10 2 -23 -30 -41
-46 -25 -11 11 -9 12 7 6 11 -4 17 -4 13 0 -4 5 -2 20 3 34 8 22 8 23 -6 12
-12 -10 -15 -9 -16 6 0 11 -7 0 -16 -24 -15 -42 -15 -43 -33 -22 -20 24 -35
26 -26 5 5 -13 2 -14 -17 -4 -19 11 -21 10 -9 -3 10 -13 10 -18 1 -24 -8 -4
-9 -3 -5 4 4 7 2 12 -3 12 -6 0 -11 -4 -11 -8 0 -4 -9 -8 -19 -9 -15 -1 -18 3
-14 15 9 26 -2 11 -20 -26 -8 -18 -11 -30 -6 -27 5 4 9 1 9 -4 0 -6 -7 -11
-15 -11 -8 0 -15 -5 -15 -11 0 -5 5 -7 12 -3 6 4 8 3 5 -4 -4 -5 -16 -8 -27
-5 -19 5 -20 7 -5 23 11 12 13 20 5 25 -6 3 -10 3 -9 -2 4 -20 -2 -27 -12 -13
-9 13 -10 13 -6 -1 3 -9 1 -22 -3 -30 -5 -8 -4 -20 3 -29 9 -12 9 -13 -3 -2
-8 6 -21 12 -29 12 -11 0 -10 -4 5 -15 18 -15 18 -15 0 -8 -13 4 -17 3 -12 -5
4 -7 2 -12 -3 -12 -6 0 -11 11 -11 24 0 14 -3 27 -7 29 -5 3 -7 -19 -6 -49 0
-30 -3 -54 -8 -54 -5 0 -9 5 -9 10 0 6 -5 10 -11 10 -7 0 -6 -9 4 -23 11 -17
12 -24 3 -24 -16 0 -22 34 -12 74 2 13 1 25 -4 28 -5 3 -7 13 -4 23 4 13 3 12
-7 -2 -9 -16 -9 -21 0 -24 9 -3 9 -7 0 -18 -7 -8 -9 -17 -6 -20 3 -3 1 -19 -3
-35 -7 -22 -5 -31 7 -38 12 -6 9 -9 -16 -13 -21 -3 -31 0 -31 9 0 7 -5 13 -11
13 -7 0 -5 -10 5 -25 12 -18 13 -24 4 -23 -7 2 -12 -3 -10 -11 2 -11 0 -12
-11 -3 -8 7 -17 9 -21 5 -4 -4 -4 1 0 11 5 13 4 17 -4 12 -6 -3 -13 2 -15 11
-2 10 -2 5 0 -12 3 -16 5 -38 5 -48 -1 -9 3 -15 8 -12 6 4 7 -2 3 -11 -4 -11
-8 -13 -11 -6 -2 7 -10 12 -18 12 -11 0 -13 -4 -5 -17 5 -9 5 -26 1 -37 -4
-12 -8 -25 -8 -29 0 -5 -4 -12 -8 -15 -4 -4 -4 -1 0 5 5 9 2 11 -9 7 -14 -6
-14 -8 2 -20 13 -9 14 -13 4 -14 -10 0 -11 -3 -2 -13 14 -17 4 -28 -17 -19
-14 5 -15 4 -2 -10 9 -10 17 -12 21 -6 4 6 9 6 12 1 3 -5 -3 -14 -14 -21 -16
-10 -19 -9 -20 5 0 15 -2 15 -8 -2 -5 -11 -6 -26 -4 -33 4 -8 -1 -10 -13 -6
-16 5 -16 4 -4 -5 20 -15 30 -14 30 3 0 17 27 29 35 15 4 -5 1 -8 -7 -7 -7 2
-12 -5 -12 -14 1 -10 -2 -15 -7 -12 -13 8 -11 -10 4 -26 6 -8 3 -7 -9 3 -20
16 -21 16 -19 0 1 -10 7 -28 13 -40 8 -14 9 -24 2 -28 -6 -3 -14 5 -19 18 -6
14 -14 28 -20 31 -14 9 -21 -7 -10 -24 7 -13 9 -13 9 -1 0 8 2 12 5 9 8 -8 -6
-39 -15 -33 -5 3 -5 -9 1 -27 11 -41 12 -38 -7 -38 -9 0 -12 5 -8 12 5 7 3 8
-5 3 -10 -6 -9 -11 3 -23 11 -12 18 -13 29 -4 11 9 14 8 14 -3 0 -8 -4 -12 -9
-9 -4 3 -8 0 -8 -6 0 -6 -3 -9 -7 -7 -5 3 -13 -1 -20 -8 -10 -11 -10 -14 0
-18 9 -4 9 -7 0 -18 -10 -10 -13 -10 -13 0 0 7 -5 9 -11 5 -8 -4 -7 -9 2 -15
8 -5 14 -14 15 -21 2 -28 17 -50 24 -38 5 7 7 0 6 -16 -1 -29 -12 -42 -24 -28
-4 4 -1 4 6 0 18 -11 15 -1 -13 40 -25 37 -34 39 -14 3 6 -11 12 -30 14 -41 3
-12 9 -24 14 -28 6 -3 6 -11 1 -20 -6 -10 -3 -21 8 -35 16 -18 16 -19 0 -6 -9
7 -22 10 -28 6 -14 -9 -13 8 2 23 9 9 9 12 0 12 -7 0 -12 -5 -12 -11 0 -5 -4
-8 -10 -4 -5 3 -6 13 -3 23 3 9 3 14 -1 11 -12 -11 -16 -50 -4 -43 7 5 9 0 6
-13 -4 -16 -1 -19 18 -17 17 1 21 -2 16 -14 -4 -10 -7 -12 -10 -4 -2 8 -10 4
-22 -10 -15 -19 -20 -21 -34 -9 -15 13 -15 10 1 -20 10 -19 19 -36 20 -38 1
-1 7 0 14 5 9 5 8 10 -5 19 -14 11 -14 14 -2 24 11 10 19 10 33 1 16 -10 16
-11 1 -6 -10 3 -20 1 -23 -5 -4 -5 -3 -9 2 -8 4 1 15 1 23 0 12 -1 11 -4 -3
-12 -9 -6 -15 -14 -13 -18 3 -4 -9 -8 -25 -9 -16 -1 -29 2 -29 8 0 5 -5 10
-10 10 -6 0 -5 -8 2 -20 7 -11 18 -18 25 -16 7 3 15 0 19 -6 4 -7 3 -8 -4 -4
-7 4 -12 2 -12 -4 0 -6 -4 -9 -9 -6 -5 3 -11 -4 -15 -17 -5 -18 -8 -20 -16 -7
-13 20 -13 4 1 -21 5 -11 15 -17 21 -13 7 4 7 9 -1 14 -9 5 -7 11 5 21 13 10
16 11 10 1 -5 -8 -1 -22 11 -35 13 -16 14 -18 1 -9 -11 9 -18 10 -23 2 -3 -6
-11 -8 -16 -5 -14 9 -11 -5 5 -21 8 -7 12 -22 9 -33 -3 -10 0 -22 7 -26 8 -5
6 -13 -6 -26 -13 -15 -15 -22 -6 -31 16 -16 15 -31 0 -22 -8 5 -7 0 2 -12 19
-25 32 -34 41 -28 4 2 6 -4 4 -13 -1 -10 3 -24 9 -32 7 -9 1 -8 -17 4 -20 13
-26 14 -22 3 3 -7 18 -22 33 -32 15 -10 19 -15 10 -12 -10 3 -18 1 -18 -3 0
-5 5 -11 12 -13 8 -3 6 -7 -5 -11 -9 -3 -16 -3 -15 1 3 14 -14 42 -23 36 -7
-4 6 -39 21 -54 3 -3 16 -19 30 -35 18 -22 19 -25 4 -12 -22 18 -44 23 -44 8
0 -5 10 -11 22 -15 18 -4 20 -8 10 -18 -10 -10 -17 -10 -31 -1 -17 11 -17 10
-7 -13 6 -13 18 -24 26 -24 13 0 13 -1 0 -10 -9 -6 -20 -5 -30 3 -13 10 -13
10 -2 -5 8 -10 12 -23 10 -30 -3 -8 -11 -1 -21 17 -9 17 -16 25 -17 20 0 -15
30 -56 38 -51 4 2 14 -1 23 -7 14 -11 14 -14 -3 -32 -14 -14 -19 -16 -16 -5 2
8 7 18 12 21 4 4 3 10 -3 13 -6 4 -11 2 -11 -5 0 -7 -12 -2 -27 12 l-28 24 28
-31 c25 -28 27 -44 5 -44 -5 0 -6 6 -2 13 4 6 3 8 -1 4 -12 -10 -15 -38 -4
-31 18 11 31 -7 17 -24 -7 -10 -9 -14 -4 -10 13 11 63 -45 58 -65 -3 -10 4
-26 17 -38 11 -11 21 -25 21 -31 0 -6 -11 -1 -25 12 -41 38 -28 14 16 -31 31
-32 38 -44 28 -53 -9 -8 -10 -8 -4 3 5 9 4 12 -3 7 -7 -4 -12 -2 -12 3 0 6 -5
11 -12 11 -7 0 -5 -7 5 -17 8 -10 16 -21 16 -26 1 -17 20 -41 27 -34 4 4 -1
14 -12 22 -10 8 -14 15 -8 15 6 0 19 -9 29 -20 17 -19 31 -20 273 -20 217 0
253 2 249 14 -3 8 -1 17 6 20 7 2 2 5 -10 5 -13 1 -23 6 -23 12 0 5 4 8 8 5 4
-2 8 4 8 15 0 10 -4 19 -9 19 -4 0 -5 5 -1 12 4 7 9 24 10 38 3 21 1 22 -7 7
-6 -9 -7 -22 -4 -27 3 -6 2 -10 -4 -10 -16 0 -24 20 -13 33 15 18 15 29 2 37
-10 6 -9 15 4 40 21 44 20 51 -4 20 l-19 -25 4 37 c6 50 9 62 15 68 3 3 12 26
21 51 12 35 12 46 3 46 -7 0 -11 -4 -8 -8 8 -13 -14 -56 -29 -56 -13 0 -13 5
-1 33 17 41 17 47 2 38 -7 -4 -5 2 5 13 9 11 17 30 17 42 0 12 4 20 8 17 5 -3
9 1 9 8 0 11 -4 12 -18 3 -10 -6 -15 -15 -13 -19 3 -4 1 -8 -5 -8 -12 0 -3 59
12 78 5 7 7 15 3 19 -3 3 -6 1 -6 -5 0 -13 -35 -11 -47 3 -5 4 1 6 12 3 17 -4
21 0 22 25 0 19 -2 25 -7 16 -5 -7 -6 -17 -3 -23 3 -5 2 -6 -4 -3 -13 8 -3 78
13 84 7 2 10 12 7 20 -4 9 -2 14 3 11 5 -4 10 12 12 33 1 24 -2 39 -9 39 -6 0
-8 -7 -5 -16 3 -8 2 -13 -3 -9 -5 3 -12 -1 -14 -7 -3 -7 -6 -8 -6 -2 -1 5 5
19 13 29 12 16 16 17 30 6 11 -9 16 -10 16 -2 0 6 -6 14 -14 17 -8 3 -13 13
-11 22 1 9 0 21 -3 27 -10 16 -9 45 0 39 5 -3 7 -13 6 -21 -2 -9 2 -18 8 -20
7 -2 10 6 9 19 -1 13 -3 28 -4 35 0 7 -7 11 -13 9 -7 -1 -10 -1 -5 1 4 3 4 10
1 15 -4 6 -2 8 4 4 6 -3 13 -2 17 4 3 5 0 10 -7 10 -8 0 -6 5 5 11 9 5 17 14
17 19 0 6 -8 10 -17 10 -15 0 -16 -2 -3 -10 13 -8 12 -10 -4 -10 -12 0 -16 5
-13 15 4 8 2 17 -3 20 -6 4 -10 1 -10 -6 0 -7 -3 -10 -6 -7 -3 4 2 18 11 32
10 14 15 32 12 39 -3 9 2 13 15 12 21 -1 40 -24 32 -37 -3 -4 -1 -8 3 -8 5 0
9 15 10 34 1 19 6 42 12 53 10 16 11 15 9 -7 -2 -17 2 -25 13 -25 9 0 23 -6
32 -13 9 -8 18 -9 21 -3 4 5 -2 14 -11 20 -10 6 -13 11 -6 11 20 0 41 -29 36
-50 -7 -25 10 -26 28 -2 13 15 12 16 -3 3 -12 -9 -18 -10 -18 -2 0 6 5 11 11
11 8 0 7 5 -1 15 -11 13 -11 18 0 28 10 9 11 9 6 -1 -9 -15 12 -44 26 -36 5 3
4 12 -3 20 -9 11 -9 18 -2 25 8 8 11 6 10 -7 -1 -11 4 -18 10 -17 7 2 12 0 11
-5 -5 -15 23 -52 35 -46 7 4 8 3 4 -1 -10 -11 -39 -16 -32 -6 2 5 -2 16 -9 26
-9 13 -15 15 -20 7 -4 -7 -2 -12 3 -12 6 0 11 -5 11 -11 0 -5 -5 -7 -12 -3 -7
4 -8 3 -4 -5 4 -6 3 -17 -3 -24 -7 -9 -7 -17 1 -27 8 -12 9 -12 4 2 -5 17 7
31 32 34 6 1 12 -2 12 -7 0 -5 5 -9 11 -9 5 0 7 5 3 12 -5 7 -2 9 8 5 13 -4
15 0 13 21 -3 24 -2 25 11 7 12 -16 12 -22 -3 -44 -16 -26 -16 -26 4 -8 22 19
33 22 33 6 0 -5 -4 -7 -10 -4 -11 7 -13 -6 -4 -29 5 -12 9 -13 19 -3 7 6 10
18 8 24 -3 7 0 13 5 13 6 0 9 -11 6 -25 -2 -14 -1 -33 4 -42 8 -14 10 -14 15
1 3 8 2 18 -3 21 -6 4 -7 13 -1 23 4 9 7 25 6 34 -2 10 1 20 5 23 5 3 7 -10 5
-29 -1 -18 1 -40 6 -47 7 -11 9 -11 9 -1 0 10 5 10 23 1 12 -6 19 -8 15 -4 -4
4 5 19 20 32 21 20 23 23 5 14 -27 -14 -33 -14 -33 -1 0 6 7 10 15 10 8 0 15
5 15 11 0 5 -4 8 -9 5 -5 -3 -12 1 -15 9 -5 13 -2 13 24 0 17 -9 30 -11 30 -6
0 5 -7 11 -15 15 -8 3 -15 11 -15 18 0 9 3 8 10 -2 5 -8 10 -10 10 -5 0 6 8 1
16 -10 15 -19 15 -19 9 10 l-7 30 20 -29 c19 -27 21 -27 30 -9 7 13 7 24 0 34
-8 11 -9 11 -4 -3 3 -10 1 -20 -4 -23 -6 -4 -10 3 -10 14 0 11 5 23 10 26 6 3
10 11 10 17 0 6 -9 3 -20 -7 -17 -15 -23 -16 -33 -5 -9 10 -9 11 1 5 8 -4 22
1 34 12 11 10 22 17 24 16 2 -2 11 -3 20 -3 11 0 15 6 11 19 -3 13 -1 18 9 14
7 -2 10 -11 8 -18 -3 -7 -1 -15 3 -18 11 -7 11 33 0 53 -5 8 0 5 11 -7 11 -13
25 -23 32 -23 6 0 8 -4 5 -10 -3 -5 -1 -10 4 -10 6 0 11 -6 11 -14 0 -8 4 -18
10 -21 6 -4 6 4 -1 22 -6 15 -11 30 -11 33 -2 17 -11 29 -19 24 -5 -3 -6 2 -2
12 5 14 7 14 18 -5 6 -12 14 -18 18 -15 4 4 7 -4 7 -17 0 -18 3 -20 9 -10 8
12 -13 55 -39 81 -3 3 -6 11 -8 19 -2 8 12 -1 30 -20 18 -19 32 -37 33 -41 0
-3 3 -9 6 -12 8 -9 4 35 -6 59 -13 33 -27 47 -35 35 -4 -6 -7 3 -7 20 0 26 2
28 10 14 10 -18 29 -42 65 -83 20 -22 22 -23 13 -4 -6 12 -16 25 -21 28 -6 3
-10 11 -10 17 0 6 10 3 21 -8 22 -19 22 -19 8 4 -8 12 -20 20 -27 17 -8 -3
-12 0 -9 7 2 7 -3 22 -12 33 -15 18 -15 19 1 7 12 -10 18 -10 24 -1 5 8 3 9
-6 4 -10 -6 -12 -4 -7 9 4 10 3 15 -3 11 -6 -3 -10 3 -10 14 0 12 -7 21 -16
21 -8 0 -12 5 -9 10 4 6 12 7 18 4 7 -4 9 -4 5 1 -4 4 -3 14 3 21 6 7 6 14 1
18 -6 3 -16 -2 -23 -11 -12 -14 -12 -16 0 -8 10 5 12 4 7 -3 -10 -16 -23 -15
-30 3 -3 8 0 14 7 12 7 -1 12 7 12 18 1 11 6 19 12 18 5 -1 10 6 9 15 -2 22
-24 62 -35 62 -16 0 -6 -29 15 -45 21 -16 20 -16 -14 -20 -17 -2 -20 1 -12 10
6 8 7 16 2 19 -5 3 -8 18 -7 33 1 15 -5 37 -14 48 -15 18 -15 19 0 7 9 -6 20
-8 24 -4 5 4 5 1 0 -7 -5 -10 -4 -12 4 -7 6 4 9 12 6 17 -8 12 1 11 28 -2 19
-9 18 -7 -3 10 -14 11 -21 21 -16 21 5 0 3 7 -4 15 -7 9 -22 13 -34 10 -12 -3
-15 -2 -8 1 6 3 12 10 12 15 0 6 -4 8 -9 5 -5 -3 -14 0 -20 8 -9 11 -8 14 6
12 10 0 21 -5 24 -9 3 -5 15 -10 25 -11 10 -2 18 -9 16 -15 -1 -6 2 -11 8 -11
5 0 10 5 10 10 0 6 0 13 0 18 0 4 -4 8 -10 8 -5 1 -14 2 -20 3 -5 0 -8 11 -6
24 2 12 10 21 17 19 8 -1 5 4 -6 13 -11 8 -27 20 -35 27 -8 7 -16 12 -18 10
-1 -2 -8 -2 -15 1 -27 9 1 15 36 8 22 -6 37 -5 37 0 0 10 -16 18 -42 23 -7 1
-33 8 -58 15 l-45 13 28 14 c15 8 27 19 27 24 0 5 6 10 13 13 6 2 4 3 -5 2
-18 -3 -33 21 -18 30 4 3 10 -1 13 -7 3 -7 5 -3 4 8 -1 18 -4 20 -19 10 -10
-6 -16 -16 -14 -22 2 -6 -2 -11 -10 -11 -8 0 -13 6 -10 13 3 8 1 16 -4 19 -4
3 -11 -1 -13 -7 -4 -8 -6 -7 -6 4 -1 12 -8 16 -28 13 -16 -2 -22 -2 -15 1 6 3
9 11 5 17 -4 7 0 8 11 4 14 -5 17 -3 12 8 -5 13 5 20 27 16 4 0 7 4 7 10 0 12
-37 3 -58 -14 -9 -7 -11 -6 -6 7 3 9 10 16 15 16 5 0 9 5 9 10 0 18 -17 10
-30 -15 -7 -14 -18 -25 -23 -25 -6 0 -6 5 0 13 5 6 10 23 11 37 1 14 -2 20 -6
15 -4 -6 -20 -11 -36 -12 -16 -1 -33 -8 -37 -15 -4 -7 -11 -9 -15 -5 -7 7 21
33 56 50 8 4 -1 5 -20 2 -19 -3 -41 -13 -47 -22 -8 -10 -13 -12 -13 -4 0 7 -5
9 -12 5 -7 -5 -8 -3 -3 6 6 9 4 12 -7 8 -8 -4 -20 3 -27 14 -11 17 -15 18 -23
7 -7 -10 -8 -9 -3 6 8 24 8 26 5 45 -1 9 -5 5 -8 -8 -8 -25 -28 -26 -26 -1 1
10 -6 15 -20 13 -12 -1 -27 -3 -34 -3 -8 -1 -10 -6 -6 -13 6 -10 4 -10 -7 0
-16 14 -33 16 -24 2 3 -5 1 -10 -5 -10 -7 0 -10 7 -7 15 4 8 2 17 -3 20 -6 4
-10 -3 -10 -14 0 -12 -5 -21 -12 -21 -6 0 -8 3 -5 7 4 3 -3 17 -15 30 -19 20
-19 23 -4 23 9 0 15 -4 11 -9 -3 -5 -2 -12 3 -15 5 -3 16 8 26 24 16 28 16 29
0 23 -10 -4 -15 -2 -11 4 3 5 -1 10 -9 10 -8 0 -18 -5 -21 -10z m-78 -47 c3
-5 1 -10 -4 -10 -6 0 -11 5 -11 10 0 6 2 10 4 10 3 0 8 -4 11 -10z m75 -10 c0
-5 -5 -10 -11 -10 -5 0 -7 5 -4 10 3 6 8 10 11 10 2 0 4 -4 4 -10z m150 -25
c0 -2 -9 -3 -19 -2 -11 0 -18 5 -15 9 4 6 34 0 34 -7z m-292 -40 c-3 -3 -9 2
-12 12 -6 14 -5 15 5 6 7 -7 10 -15 7 -18z m74 18 c-6 -2 -9 -10 -6 -15 4 -7
2 -8 -5 -4 -13 9 -5 26 12 25 9 0 8 -2 -1 -6z m208 -13 c-6 -11 -12 -20 -13
-20 -2 0 -3 9 -3 20 0 11 6 20 13 20 11 0 11 -5 3 -20z m-360 1 c0 -6 -4 -12
-8 -15 -5 -3 -9 1 -9 9 0 8 4 15 9 15 4 0 8 -4 8 -9z m35 -9 c-3 -3 -11 0 -18
7 -9 10 -8 11 6 5 10 -3 15 -9 12 -12z m555 -56 c0 -2 -9 -6 -20 -9 -11 -3
-18 -1 -14 4 5 9 34 13 34 5z m113 -131 c9 2 17 -1 17 -6 0 -4 -17 -8 -37 -7
-21 1 -32 3 -25 6 7 2 9 9 5 15 -5 9 -3 9 8 1 8 -6 22 -10 32 -9z m17 -87 c0
-11 -12 -10 -30 2 -12 7 -10 9 8 7 12 0 22 -5 22 -9z m-1020 -52 c0 -2 -7 -7
-16 -10 -8 -3 -12 -2 -9 4 6 10 25 14 25 6z m1091 -14 c-11 -4 -11 -6 0 -13
10 -6 8 -9 -8 -9 -12 0 -25 5 -29 12 -4 6 -3 8 3 5 6 -4 16 0 23 8 7 9 16 13
19 9 3 -4 0 -9 -8 -12z m11 -100 c-7 -2 -10 -8 -6 -13 3 -5 0 -9 -5 -9 -13 0
-13 3 -5 24 3 9 11 13 17 9 8 -5 7 -8 -1 -11z m-1205 -197 c0 -8 -4 -15 -9
-15 -4 0 -8 7 -8 15 0 8 4 15 8 15 5 0 9 -7 9 -15z m1228 -75 c3 -5 1 -10 -4
-10 -6 0 -11 5 -11 10 0 6 2 10 4 10 3 0 8 -4 11 -10z m-1255 -70 c0 -5 -2
-10 -4 -10 -3 0 -8 5 -11 10 -3 6 -1 10 4 10 6 0 11 -4 11 -10z m1121 -97 c13
-16 12 -17 -3 -4 -17 13 -22 21 -14 21 2 0 10 -8 17 -17z m-31 -33 c0 -5 -4
-10 -10 -10 -5 0 -10 5 -10 10 0 6 5 10 10 10 6 0 10 -4 10 -10z m-488 -39
c-2 -17 -8 -28 -13 -25 -5 3 -7 10 -4 15 4 5 2 9 -4 9 -5 0 -12 -6 -14 -12 -3
-8 -6 -6 -6 5 -1 9 6 17 14 17 8 0 14 3 14 8 -3 15 1 23 9 18 5 -3 7 -19 4
-35z m71 26 c4 3 7 2 7 -3 0 -12 -40 -37 -48 -30 -3 3 0 6 6 6 6 0 9 9 7 21
-3 16 -1 18 9 10 7 -6 16 -8 19 -4z m37 -17 c0 -5 -2 -10 -4 -10 -3 0 -8 5
-11 10 -3 6 -1 10 4 10 6 0 11 -4 11 -10z m270 -125 c7 -9 8 -15 2 -15 -5 0
-12 7 -16 15 -3 8 -4 15 -2 15 2 0 9 -7 16 -15z m-1046 -240 c-4 -8 0 -23 7
-33 7 -9 2 -7 -12 6 -20 19 -22 24 -9 32 20 13 20 13 14 -5z m594 -15 c-7 -10
-14 -17 -17 -15 -4 4 18 35 25 35 2 0 -1 -9 -8 -20z m-551 -341 c-9 -14 -13
-15 -24 -4 -18 18 -17 21 11 21 20 0 22 -3 13 -17z m-18 -113 c-6 -6 -13 -6
-21 2 -7 7 -8 12 -4 12 5 0 2 8 -5 17 -11 13 -8 13 13 -2 16 -13 23 -24 17
-29z m585 -182 c3 -8 2 -12 -4 -9 -6 3 -10 10 -10 16 0 14 7 11 14 -7z"/>
<path d="M2656 3728 c3 -5 10 -6 15 -3 13 9 11 12 -6 12 -8 0 -12 -4 -9 -9z"/>
<path d="M2613 3714 c-3 -9 0 -20 7 -24 16 -10 40 -2 40 12 0 7 -5 6 -13 -1
-16 -13 -28 -5 -20 15 3 8 2 14 -1 14 -4 0 -9 -7 -13 -16z"/>
<path d="M2410 3711 c0 -5 7 -14 15 -21 10 -9 15 -9 15 -1 0 6 -5 11 -11 11
-5 0 -7 5 -4 10 3 6 1 10 -4 10 -6 0 -11 -4 -11 -9z"/>
<path d="M2333 3685 c0 -8 4 -12 9 -9 4 3 8 9 8 15 0 5 -4 9 -8 9 -5 0 -9 -7
-9 -15z"/>
<path d="M2766 3684 c-8 -22 -4 -25 11 -9 7 8 9 16 4 19 -5 3 -12 -1 -15 -10z"/>
<path d="M2780 3662 c0 -6 -7 -12 -17 -14 -14 -3 -14 -5 3 -18 10 -8 16 -10
12 -6 -4 5 -3 15 4 23 6 7 8 16 4 20 -3 3 -6 1 -6 -5z"/>
<path d="M2825 3651 c-6 -11 13 -26 22 -17 4 3 1 6 -6 6 -7 0 -9 5 -6 10 3 6
4 10 1 10 -3 0 -7 -4 -11 -9z"/>
<path d="M2790 3630 c0 -6 4 -9 9 -6 5 4 12 1 14 -4 3 -6 4 -5 3 2 -3 15 -26
23 -26 8z"/>
<path d="M2945 3600 c-3 -6 1 -7 9 -4 18 7 21 14 7 14 -6 0 -13 -4 -16 -10z"/>
<path d="M2211 3584 c0 -11 3 -14 6 -6 3 7 2 16 -1 19 -3 4 -6 -2 -5 -13z"/>
<path d="M3008 3533 c-20 -5 -25 -33 -6 -33 6 0 8 3 5 7 -4 3 1 12 11 19 18
14 17 14 -10 7z"/>
<path d="M2040 3471 c0 -6 4 -13 10 -16 6 -3 7 1 4 9 -7 18 -14 21 -14 7z"/>
<path d="M3090 3469 c0 -5 5 -7 10 -4 6 3 10 8 10 11 0 2 -4 4 -10 4 -5 0 -10
-5 -10 -11z"/>
<path d="M3038 3393 c6 -2 18 -2 25 0 6 3 1 5 -13 5 -14 0 -19 -2 -12 -5z"/>
<path d="M1970 3371 c0 -6 4 -13 10 -16 6 -3 7 1 4 9 -7 18 -14 21 -14 7z"/>
<path d="M3184 3332 c4 -3 14 -7 22 -8 9 -1 13 0 10 4 -4 3 -14 7 -22 8 -9 1
-13 0 -10 -4z"/>
<path d="M1969 3293 c-13 -16 -12 -17 4 -4 9 7 17 15 17 17 0 8 -8 3 -21 -13z"/>
<path d="M1935 3210 c-3 -5 -1 -10 4 -10 6 0 11 5 11 10 0 6 -2 10 -4 10 -3 0
-8 -4 -11 -10z"/>
<path d="M3127 3123 c-2 -5 9 -18 24 -31 18 -15 27 -18 23 -9 -3 9 -12 18 -20
21 -9 3 -12 10 -9 16 3 5 2 10 -4 10 -5 0 -12 -3 -14 -7z"/>
<path d="M1867 2981 c-3 -13 -1 -18 9 -14 7 2 10 11 7 19 -7 19 -10 18 -16 -5z"/>
<path d="M3190 2946 c7 -7 13 -7 20 0 6 6 3 10 -10 10 -13 0 -16 -4 -10 -10z"/>
<path d="M1853 2934 c9 -12 14 -24 10 -27 -3 -4 -1 -7 5 -7 22 0 19 15 -7 34
-26 20 -26 20 -8 0z"/>
<path d="M1856 2727 c3 -10 9 -15 12 -12 3 3 0 11 -7 18 -10 9 -11 8 -5 -6z"/>
<path d="M3089 2697 c6 -14 7 -28 3 -32 -3 -3 2 -3 13 1 11 5 14 9 7 12 -7 2
-12 10 -12 17 0 8 -4 17 -10 20 -7 4 -7 -2 -1 -18z"/>
<path d="M3170 2690 c0 -5 5 -10 11 -10 5 0 7 5 4 10 -3 6 -8 10 -11 10 -2 0
-4 -4 -4 -10z"/>
<path d="M3026 2683 c-10 -11 -7 -21 10 -27 8 -3 13 -2 9 3 -3 5 0 11 7 13 8
3 6 6 -4 10 -9 4 -19 4 -22 1z"/>
<path d="M4554 2671 c23 -25 22 -25 30 -4 4 10 4 14 0 11 -4 -4 -16 -2 -28 4
-21 11 -21 11 -2 -11z"/>
<path d="M2457 2605 c-13 -18 -14 -25 -5 -31 7 -4 10 -3 5 1 -4 5 0 17 10 27
9 10 14 20 12 22 -2 2 -12 -6 -22 -19z"/>
<path d="M1755 2610 c3 -5 8 -10 11 -10 2 0 4 5 4 10 0 6 -5 10 -11 10 -5 0
-7 -4 -4 -10z"/>
<path d="M2548 2613 c7 -3 16 -2 19 1 4 3 -2 6 -13 5 -11 0 -14 -3 -6 -6z"/>
<path d="M2690 2556 c0 -2 7 -7 16 -10 8 -3 12 -2 9 4 -6 10 -25 14 -25 6z"/>
<path d="M2468 2493 c7 -3 16 -2 19 1 4 3 -2 6 -13 5 -11 0 -14 -3 -6 -6z"/>
<path d="M2835 2481 c-3 -5 -2 -12 3 -15 5 -3 9 1 9 9 0 17 -3 19 -12 6z"/>
<path d="M1760 2460 c6 -11 13 -20 16 -20 2 0 0 9 -6 20 -6 11 -13 20 -16 20
-2 0 0 -9 6 -20z"/>
<path d="M2475 2470 c3 -5 8 -10 11 -10 2 0 4 5 4 10 0 6 -5 10 -11 10 -5 0
-7 -4 -4 -10z"/>
<path d="M1793 2395 c0 -8 4 -12 9 -9 5 3 6 10 3 15 -9 13 -12 11 -12 -6z"/>
<path d="M2477 2403 c-10 -9 -9 -23 1 -23 5 0 9 7 9 15 0 17 -1 18 -10 8z"/>
<path d="M2426 2237 c3 -10 9 -15 12 -12 3 3 0 11 -7 18 -10 9 -11 8 -5 -6z"/>
<path d="M1793 2175 c0 -8 4 -12 9 -9 5 3 6 10 3 15 -9 13 -12 11 -12 -6z"/>
<path d="M2445 2110 c-3 -6 1 -7 9 -4 18 7 21 14 7 14 -6 0 -13 -4 -16 -10z"/>
<path d="M1833 1805 c0 -8 4 -12 8 -9 4 2 10 -4 12 -13 4 -15 5 -15 6 -2 0 9
-5 22 -12 28 -10 8 -14 7 -14 -4z"/>
<path d="M3490 1789 c0 -5 5 -7 10 -4 6 3 10 8 10 11 0 2 -4 4 -10 4 -5 0 -10
-5 -10 -11z"/>
</g>
</svg>
